<?xml version="1.0" encoding="UTF-8" standalone="no"?>
<svg width="230px" height="82px" viewBox="0 0 230 82" version="1.1" xmlns="http://www.w3.org/2000/svg" xmlns:xlink="http://www.w3.org/1999/xlink" xmlns:sketch="http://www.bohemiancoding.com/sketch/ns">
    <!-- Generator: Sketch 3.0.4 (8054) - http://www.bohemiancoding.com/sketch -->
    <title>logo_IAP_cmyk</title>
    <desc>Created with Sketch.</desc>
    <defs></defs>
    <g id="Home" stroke="none" stroke-width="1" fill="none" fill-rule="evenodd" sketch:type="MSPage">
        <g id="Desktop" sketch:type="MSArtboardGroup" transform="translate(-344.000000, -172.000000)" fill="#FFFFFF">
            <g id="logo_IAP_cmyk" sketch:type="MSLayerGroup" transform="translate(344.000000, 172.000000)">
                <path d="M69.9096519,30.5481008 C69.9096519,29.8728067 70.353765,29.4180168 71.0476918,29.4180168 C71.7416185,29.4180168 72.1857317,29.8728067 72.1857317,30.5481008 L72.1857317,38.5696303 C72.1857317,39.2442353 71.7416185,39.6990252 71.0476918,39.6990252 C70.353765,39.6990252 69.9096519,39.2442353 69.9096519,38.5696303 L69.9096519,30.5481008" id="Fill-1" sketch:type="MSShapeGroup"></path>
                <path d="M78.0258193,31.8711261 L77.9980623,31.8711261 L76.6518443,35.8539832 L79.317217,35.8539832 L78.0258193,31.8711261 L78.0258193,31.8711261 Z M76.6518443,30.1070924 C76.8461438,29.5971765 77.2069857,29.4180168 77.7628211,29.4180168 L78.30339,29.4180168 C78.8168958,29.4180168 79.2748875,29.5420504 79.5247011,30.2449076 L82.273345,37.838521 C82.3559223,38.0597143 82.4954016,38.4593782 82.4954016,38.7067563 C82.4954016,39.2587059 82.008959,39.6990252 81.4260605,39.6990252 C80.9264332,39.6990252 80.5655913,39.5198655 80.3990489,39.0788571 L79.8161504,37.4257647 L76.1522171,37.4257647 L75.556134,39.0788571 C75.4027762,39.5198655 75.0835698,39.6990252 74.542307,39.6990252 C73.9177729,39.6990252 73.4875383,39.3138319 73.4875383,38.7067563 C73.4875383,38.4593782 73.6263236,38.0597143 73.7102888,37.838521 L76.6518443,30.1070924 L76.6518443,30.1070924 Z" id="Fill-2" sketch:type="MSShapeGroup"></path>
                <path d="M85.949769,34.1457647 L88.0738789,34.1457647 C88.9898622,34.1457647 89.6706044,33.5938151 89.6706044,32.7393613 C89.6706044,31.7477815 88.9621051,31.3343361 87.8379438,31.3343361 L85.949769,31.3343361 L85.949769,34.1457647 L85.949769,34.1457647 Z M83.6743832,30.9202017 C83.6743832,29.9141513 84.2017675,29.5971765 85.0067226,29.5971765 L88.4902349,29.5971765 C90.4054728,29.5971765 91.9459902,30.5343193 91.9459902,32.7393613 C91.9459902,34.5447395 90.6830435,35.8822353 88.4763564,35.8822353 L85.949769,35.8822353 L85.949769,38.5696303 C85.949769,39.2442353 85.5070438,39.6990252 84.813117,39.6990252 C84.1191902,39.6990252 83.6743832,39.2442353 83.6743832,38.5696303 L83.6743832,30.9202017 L83.6743832,30.9202017 Z" id="Fill-3" sketch:type="MSShapeGroup"></path>
                <path d="M69.9096519,44.6762185 C69.9096519,44.0016134 70.353765,43.5461345 71.0476918,43.5461345 C71.7416185,43.5461345 72.1857317,44.0016134 72.1857317,44.6762185 L72.1857317,52.6970588 C72.1857317,53.3723529 71.7416185,53.8271429 71.0476918,53.8271429 C70.353765,53.8271429 69.9096519,53.3723529 69.9096519,52.6970588 L69.9096519,44.6762185" id="Fill-4" sketch:type="MSShapeGroup"></path>
                <path d="M74.0461493,47.2678319 C74.0461493,46.6607563 74.3230261,46.2610924 74.9614387,46.2610924 C75.5998514,46.2610924 75.8767281,46.6607563 75.8767281,47.2678319 L75.8767281,47.5289916 L75.9051791,47.5289916 C76.474893,46.7847899 77.2097614,46.2610924 78.3609859,46.2610924 C79.582991,46.2610924 80.9153304,46.8681681 80.9153304,48.9071429 L80.9153304,52.8204034 C80.9153304,53.3592605 80.6932738,53.8271429 79.9021973,53.8271429 C79.1104269,53.8271429 78.8890642,53.3592605 78.8890642,52.8204034 L78.8890642,49.3068067 C78.8890642,48.4936975 78.4865867,47.9148739 77.611545,47.9148739 C76.9044337,47.9148739 76.0717216,48.4936975 76.0717216,49.4997479 L76.0717216,52.8204034 C76.0717216,53.3592605 75.849665,53.8271429 75.0585885,53.8271429 C74.267512,53.8271429 74.0461493,53.3592605 74.0461493,52.8204034 L74.0461493,47.2678319" id="Fill-5" sketch:type="MSShapeGroup"></path>
                <path d="M85.2447395,46.2610924 C86.7859508,46.2610924 88.3403467,46.8681681 88.3403467,47.7915294 C88.3403467,48.2594118 88.0204465,48.6728571 87.4930622,48.6728571 C86.7026796,48.6728571 86.6749225,47.7494958 85.3980973,47.7494958 C84.689598,47.7494958 84.2323003,47.942437 84.2323003,48.3696639 C84.2323003,48.8382353 84.689598,48.9484874 85.3148261,49.0863025 L86.1614167,49.2799328 C87.3133351,49.5410924 88.6873101,50.0234454 88.6873101,51.4291597 C88.6873101,53.0698487 87.0905846,53.8271429 85.5646397,53.8271429 C83.732673,53.8271429 82.2060342,53.0147227 82.2060342,52.0217647 C82.2060342,51.5814454 82.4558478,51.1817815 83.0248677,51.1817815 C83.8992155,51.1817815 83.9817927,52.4214286 85.4806746,52.4214286 C86.2030523,52.4214286 86.661044,52.1044538 86.661044,51.6916975 C86.661044,51.1817815 86.2169309,51.0984034 85.495247,50.9192437 L84.301693,50.6298319 C83.1220175,50.3404202 82.2060342,49.8587563 82.2060342,48.507479 C82.2060342,46.8681681 83.8437013,46.2610924 85.2447395,46.2610924" id="Fill-6" sketch:type="MSShapeGroup"></path>
                <path d="M90.5047043,47.7632773 L90.1577409,47.7632773 C89.588721,47.7632773 89.3527859,47.5427731 89.3527859,47.1024538 C89.3527859,46.6607563 89.588721,46.4402521 90.1577409,46.4402521 L90.5047043,46.4402521 L90.5047043,45.2136975 C90.5047043,44.5514958 90.9071819,44.2076471 91.5178374,44.2076471 C92.128493,44.2076471 92.5309705,44.5514958 92.5309705,45.2136975 L92.5309705,46.4402521 L93.14232,46.4402521 C93.7384031,46.4402521 94.0576094,46.6187227 94.0576094,47.1024538 C94.0576094,47.5841176 93.7384031,47.7632773 93.14232,47.7632773 L92.5309705,47.7632773 L92.5309705,51.7867899 C92.5309705,52.0906723 92.6975129,52.2560504 93.0583548,52.2560504 L93.3498041,52.2560504 C93.7946111,52.2560504 94.0576094,52.5041176 94.0576094,52.9313445 C94.0576094,53.509479 93.558676,53.8271429 92.5864846,53.8271429 C91.1153599,53.8271429 90.5047043,53.2207563 90.5047043,52.0362353 L90.5047043,47.7632773" id="Fill-7" sketch:type="MSShapeGroup"></path>
                <path d="M95.3628856,47.2678319 C95.3628856,46.7296639 95.5849422,46.2610924 96.3760187,46.2610924 C97.1670952,46.2610924 97.3891518,46.7296639 97.3891518,47.2678319 L97.3891518,52.8204034 C97.3891518,53.3592605 97.1670952,53.8271429 96.3760187,53.8271429 C95.5849422,53.8271429 95.3628856,53.3592605 95.3628856,52.8204034 L95.3628856,47.2678319 L95.3628856,47.2678319 Z M96.3760187,43.4910084 C96.9589172,43.4910084 97.4300934,43.9595798 97.4300934,44.5384034 C97.4300934,45.1172269 96.9589172,45.5851092 96.3760187,45.5851092 C95.7931202,45.5851092 95.32125,45.1172269 95.32125,44.5384034 C95.32125,43.9595798 95.7931202,43.4910084 96.3760187,43.4910084 L96.3760187,43.4910084 Z" id="Fill-8" sketch:type="MSShapeGroup"></path>
                <path d="M99.7672388,47.7632773 L99.4202754,47.7632773 C98.8519494,47.7632773 98.6153204,47.5427731 98.6153204,47.1024538 C98.6153204,46.6607563 98.8519494,46.4402521 99.4202754,46.4402521 L99.7672388,46.4402521 L99.7672388,45.2136975 C99.7672388,44.5514958 100.17041,44.2076471 100.780372,44.2076471 C101.391027,44.2076471 101.793505,44.5514958 101.793505,45.2136975 L101.793505,46.4402521 L102.40416,46.4402521 C103.001631,46.4402521 103.320838,46.6187227 103.320838,47.1024538 C103.320838,47.5841176 103.001631,47.7632773 102.40416,47.7632773 L101.793505,47.7632773 L101.793505,51.7867899 C101.793505,52.0906723 101.960741,52.2560504 102.321583,52.2560504 L102.613032,52.2560504 C103.057146,52.2560504 103.320838,52.5041176 103.320838,52.9313445 C103.320838,53.509479 102.820517,53.8271429 101.849019,53.8271429 C100.377894,53.8271429 99.7672388,53.2207563 99.7672388,52.0362353 L99.7672388,47.7632773" id="Fill-9" sketch:type="MSShapeGroup"></path>
                <path d="M111.350264,52.8204034 C111.350264,53.427479 111.072,53.8271429 110.434281,53.8271429 C109.795868,53.8271429 109.517604,53.427479 109.517604,52.8204034 L109.517604,52.5599328 L109.490541,52.5599328 C108.921521,53.3041345 108.185264,53.8271429 107.033346,53.8271429 C105.812035,53.8271429 104.479695,53.2207563 104.479695,51.1817815 L104.479695,47.2678319 C104.479695,46.7296639 104.702446,46.2610924 105.493522,46.2610924 C106.283905,46.2610924 106.505962,46.7296639 106.505962,47.2678319 L106.505962,50.7814286 C106.505962,51.5945378 106.908439,52.1733613 107.782787,52.1733613 C108.491286,52.1733613 109.323998,51.5945378 109.323998,50.5884874 L109.323998,47.2678319 C109.323998,46.7296639 109.546055,46.2610924 110.337131,46.2610924 C111.128208,46.2610924 111.350264,46.7296639 111.350264,47.2678319 L111.350264,52.8204034" id="Fill-10" sketch:type="MSShapeGroup"></path>
                <path d="M113.5285,47.7632773 L113.181537,47.7632773 C112.611823,47.7632773 112.375888,47.5427731 112.375888,47.1024538 C112.375888,46.6607563 112.611823,46.4402521 113.181537,46.4402521 L113.5285,46.4402521 L113.5285,45.2136975 C113.5285,44.5514958 113.930978,44.2076471 114.54094,44.2076471 C115.152289,44.2076471 115.554767,44.5514958 115.554767,45.2136975 L115.554767,46.4402521 L116.165422,46.4402521 C116.762199,46.4402521 117.080712,46.6187227 117.080712,47.1024538 C117.080712,47.5841176 116.762199,47.7632773 116.165422,47.7632773 L115.554767,47.7632773 L115.554767,51.7867899 C115.554767,52.0906723 115.721309,52.2560504 116.082151,52.2560504 L116.3736,52.2560504 C116.817713,52.2560504 117.080712,52.5041176 117.080712,52.9313445 C117.080712,53.509479 116.581084,53.8271429 115.610281,53.8271429 C114.137768,53.8271429 113.5285,53.2207563 113.5285,52.0362353 L113.5285,47.7632773" id="Fill-11" sketch:type="MSShapeGroup"></path>
                <path d="M123.021419,47.7632773 L122.563427,47.7632773 C121.993713,47.7632773 121.757778,47.5427731 121.757778,47.1024538 C121.757778,46.6607563 121.993713,46.4402521 122.563427,46.4402521 L123.021419,46.4402521 L123.021419,45.4348908 C123.021419,44.1669916 124.075493,43.4910084 125.254475,43.4910084 C125.990731,43.4910084 126.588202,43.7804202 126.588202,44.4564034 C126.588202,44.8278151 126.295365,45.145479 125.935217,45.145479 C125.783247,45.145479 125.643768,45.1034454 125.491798,45.1034454 C125.200349,45.1034454 125.047685,45.2963866 125.047685,45.5720168 L125.047685,46.4402521 L125.672219,46.4402521 C126.268302,46.4402521 126.588202,46.6187227 126.588202,47.1024538 C126.588202,47.5841176 126.268302,47.7632773 125.672219,47.7632773 L125.047685,47.7632773 L125.047685,52.8204034 C125.047685,53.482605 124.645207,53.8271429 124.033858,53.8271429 C123.423896,53.8271429 123.021419,53.482605 123.021419,52.8204034 L123.021419,47.7632773" id="Fill-12" sketch:type="MSShapeGroup"></path>
                <path d="M132.375551,43.5178824 C132.929999,43.5178824 133.387991,43.9733613 133.387991,44.5246218 C133.387991,45.0758824 132.929999,45.5306723 132.375551,45.5306723 C131.819716,45.5306723 131.361724,45.0758824 131.361724,44.5246218 C131.361724,43.9733613 131.819716,43.5178824 132.375551,43.5178824 L132.375551,43.5178824 Z M129.54433,43.5178824 C130.098778,43.5178824 130.556769,43.9733613 130.556769,44.5246218 C130.556769,45.0758824 130.098778,45.5306723 129.54433,45.5306723 C128.988495,45.5306723 128.530503,45.0758824 128.530503,44.5246218 C128.530503,43.9733613 128.988495,43.5178824 129.54433,43.5178824 L129.54433,43.5178824 Z M134.387245,52.8204034 C134.387245,53.427479 134.110368,53.8271429 133.470568,53.8271429 C132.832155,53.8271429 132.555972,53.427479 132.555972,52.8204034 L132.555972,52.5599328 L132.527521,52.5599328 C131.958501,53.3041345 131.223633,53.8271429 130.071715,53.8271429 C128.850403,53.8271429 127.518064,53.2207563 127.518064,51.1817815 L127.518064,47.2678319 C127.518064,46.7296639 127.739427,46.2610924 128.530503,46.2610924 C129.322274,46.2610924 129.54433,46.7296639 129.54433,47.2678319 L129.54433,50.7814286 C129.54433,51.5945378 129.946808,52.1733613 130.821155,52.1733613 C131.528267,52.1733613 132.360979,51.5945378 132.360979,50.5884874 L132.360979,47.2678319 C132.360979,46.7296639 132.583035,46.2610924 133.374806,46.2610924 C134.164495,46.2610924 134.387245,46.7296639 134.387245,47.2678319 L134.387245,52.8204034 L134.387245,52.8204034 Z" id="Fill-13" sketch:type="MSShapeGroup"></path>
                <path d="M136.108183,47.1982353 C136.108183,46.5918487 136.510661,46.2610924 137.024167,46.2610924 C137.538366,46.2610924 137.940844,46.5918487 137.940844,47.1982353 L137.940844,47.97 L137.967907,47.97 C138.203842,47.1293277 138.661834,46.2610924 139.64721,46.2610924 C140.285623,46.2610924 140.756799,46.6745378 140.756799,47.2395798 C140.756799,47.9837815 140.258559,48.2463193 139.758238,48.2463193 L139.397396,48.2463193 C138.579257,48.2463193 138.13445,48.8106723 138.13445,50.4782353 L138.13445,52.8204034 C138.13445,53.3592605 137.912393,53.8271429 137.120623,53.8271429 C136.33024,53.8271429 136.108183,53.3592605 136.108183,52.8204034 L136.108183,47.1982353" id="Fill-14" sketch:type="MSShapeGroup"></path>
                <path d="M149.750784,45.9992437 L149.72372,45.9992437 L148.376809,49.9821008 L151.041487,49.9821008 L149.750784,45.9992437 L149.750784,45.9992437 Z M148.376809,44.2358992 C148.571802,43.7252941 148.932644,43.5461345 149.486398,43.5461345 L150.029048,43.5461345 C150.542554,43.5461345 151.000546,43.6701681 151.249665,44.3730252 L153.996921,51.9666387 C154.080887,52.1871429 154.219672,52.5868067 154.219672,52.8348739 C154.219672,53.3861345 153.733923,53.8271429 153.151719,53.8271429 C152.651397,53.8271429 152.290556,53.6486723 152.124013,53.2069748 L151.541115,51.5531933 L147.877875,51.5531933 L147.280404,53.2069748 C147.128434,53.6486723 146.808534,53.8271429 146.267965,53.8271429 C145.642737,53.8271429 145.213197,53.4412605 145.213197,52.8348739 C145.213197,52.5868067 145.351288,52.1871429 145.434559,51.9666387 L148.376809,44.2358992 L148.376809,44.2358992 Z" id="Fill-15" sketch:type="MSShapeGroup"></path>
                <path d="M155.149534,47.2678319 C155.149534,46.6607563 155.427105,46.2610924 156.065517,46.2610924 C156.70393,46.2610924 156.981501,46.6607563 156.981501,47.2678319 L156.981501,47.5289916 L157.008564,47.5289916 C157.578278,46.7847899 158.31384,46.2610924 159.465758,46.2610924 C160.687069,46.2610924 162.019409,46.8681681 162.019409,48.9071429 L162.019409,52.8204034 C162.019409,53.3592605 161.797352,53.8271429 161.005582,53.8271429 C160.215199,53.8271429 159.993143,53.3592605 159.993143,52.8204034 L159.993143,49.3068067 C159.993143,48.4936975 159.590665,47.9148739 158.716317,47.9148739 C158.009206,47.9148739 157.175106,48.4936975 157.175106,49.4997479 L157.175106,52.8204034 C157.175106,53.3592605 156.95305,53.8271429 156.162667,53.8271429 C155.37159,53.8271429 155.149534,53.3592605 155.149534,52.8204034 L155.149534,47.2678319" id="Fill-16" sketch:type="MSShapeGroup"></path>
                <path d="M166.959473,51.9666387 C167.862272,51.9666387 168.556199,51.3740336 168.556199,49.9407563 C168.556199,48.480605 168.000364,47.8321849 167.057317,47.8321849 C165.752041,47.8321849 165.349563,48.7831092 165.349563,50.0234454 C165.349563,50.9474958 165.807555,51.9666387 166.959473,51.9666387 L166.959473,51.9666387 Z M170.4985,53.0553782 C170.4985,55.4816134 169.000312,56.5972269 166.890081,56.5972269 C165.349563,56.5972269 163.836803,55.9081513 163.836803,54.9296639 C163.836803,54.4335294 164.226096,54.0752101 164.670209,54.0752101 C165.516106,54.0752101 165.682648,55.1088235 166.821382,55.1088235 C168.055878,55.1088235 168.556199,54.4886555 168.556199,52.9044706 L168.556199,52.4903361 L168.527748,52.4903361 C168.166906,53.0147227 167.37583,53.455042 166.571568,53.455042 C164.434274,53.455042 163.323297,52.0768908 163.323297,50.0923529 C163.323297,47.4876471 164.795116,46.2610924 166.501482,46.2610924 C167.486858,46.2610924 168.26475,46.7158824 168.638776,47.460084 L168.667227,47.460084 L168.667227,47.2127059 C168.667227,46.5918487 168.98574,46.2610924 169.583211,46.2610924 C170.207051,46.2610924 170.4985,46.5918487 170.4985,47.2127059 L170.4985,53.0553782 L170.4985,53.0553782 Z" id="Fill-17" sketch:type="MSShapeGroup"></path>
                <path d="M177.382947,49.2654622 C177.271225,48.3414118 176.577298,47.6668067 175.676581,47.6668067 C174.662754,47.6668067 174.052793,48.2869748 173.830042,49.2654622 L177.382947,49.2654622 L177.382947,49.2654622 Z M173.830042,50.4231092 C173.830042,51.4842857 174.523969,52.2560504 175.703645,52.2560504 C177.230977,52.2560504 177.230977,51.2637815 178.049811,51.2637815 C178.534866,51.2637815 178.881829,51.6772269 178.881829,52.0493277 C178.881829,53.2621008 176.924262,53.8271429 175.703645,53.8271429 C172.871729,53.8271429 171.803776,51.9259832 171.803776,50.175042 C171.803776,47.8321849 173.233265,46.2610924 175.634252,46.2610924 C177.965152,46.2610924 179.297491,47.9017815 179.297491,49.5548739 C179.297491,50.2439496 179.090701,50.4231092 178.409959,50.4231092 L173.830042,50.4231092 L173.830042,50.4231092 Z" id="Fill-18" sketch:type="MSShapeGroup"></path>
                <path d="M180.303685,47.942437 C180.234292,47.7219328 180.163512,47.5021176 180.163512,47.1982353 C180.163512,46.6745378 180.63677,46.2610924 181.148888,46.2610924 C181.898329,46.2610924 182.010051,46.6607563 182.14953,47.2395798 L183.217484,51.6496639 L183.245935,51.6496639 L184.107098,47.6392437 C184.272252,46.8536975 184.439489,46.2342185 185.383923,46.2610924 C186.340848,46.2342185 186.535841,46.839916 186.716262,47.6392437 L187.59061,51.6496639 L187.617673,51.6496639 L188.617622,47.2395798 C188.742529,46.6607563 188.866741,46.2610924 189.616182,46.2610924 C190.130382,46.2610924 190.601558,46.6745378 190.601558,47.1982353 C190.601558,47.5021176 190.53286,47.7219328 190.462079,47.942437 L188.978464,52.7384034 C188.687014,53.6893277 188.464264,53.8271429 187.659309,53.8271429 C186.812024,53.8271429 186.605234,53.5790756 186.396362,52.7797479 L185.397108,48.8251429 L185.368657,48.8251429 L184.370096,52.7797479 C184.161224,53.5790756 183.95374,53.8271429 183.106455,53.8271429 C182.300806,53.8271429 182.07875,53.6893277 181.787301,52.7384034 L180.303685,47.942437" id="Fill-19" sketch:type="MSShapeGroup"></path>
                <path d="M196.202935,50.2584202 C195.980185,50.4644538 195.564523,50.5333613 195.328587,50.5747059 L194.592331,50.684958 C193.747128,50.8089916 193.288443,51.0708403 193.288443,51.6772269 C193.288443,52.1320168 193.718677,52.5041176 194.412604,52.5041176 C195.522193,52.5041176 196.202935,51.7867899 196.202935,51.0432773 L196.202935,50.2584202 L196.202935,50.2584202 Z M198.229201,51.7047899 C198.229201,52.5454622 198.437379,52.7384034 198.437379,53.0553782 C198.437379,53.509479 198.006451,53.8271429 197.521396,53.8271429 C196.647048,53.8271429 196.355599,53.2758824 196.327148,52.6557143 C195.537459,53.5239496 194.620782,53.8271429 193.551441,53.8271429 C192.399523,53.8271429 191.263564,53.0415966 191.263564,51.7736975 C191.263564,50.1061345 192.539002,49.637563 194.094092,49.4590924 L195.328587,49.3205882 C195.813642,49.2654622 196.202935,49.1552101 196.202935,48.5763866 C196.202935,47.997563 195.606158,47.7494958 194.92611,47.7494958 C193.427228,47.7494958 193.384899,48.8520168 192.579944,48.8520168 C192.067826,48.8520168 191.721556,48.4936975 191.721556,48.0809412 C191.721556,47.2809244 192.857514,46.2610924 194.939295,46.2610924 C196.882983,46.2610924 198.229201,46.8812605 198.229201,48.3283193 L198.229201,51.7047899 L198.229201,51.7047899 Z" id="Fill-20" sketch:type="MSShapeGroup"></path>
                <path d="M199.977203,47.2678319 C199.977203,46.6607563 200.255467,46.2610924 200.893186,46.2610924 C201.531599,46.2610924 201.809863,46.6607563 201.809863,47.2678319 L201.809863,47.5289916 L201.836927,47.5289916 C202.405947,46.7847899 203.142203,46.2610924 204.294121,46.2610924 C205.515432,46.2610924 206.847772,46.8681681 206.847772,48.9071429 L206.847772,52.8204034 C206.847772,53.3592605 206.625021,53.8271429 205.833945,53.8271429 C205.043562,53.8271429 204.821506,53.3592605 204.821506,52.8204034 L204.821506,49.3068067 C204.821506,48.4936975 204.419028,47.9148739 203.54468,47.9148739 C202.836875,47.9148739 202.003469,48.4936975 202.003469,49.4997479 L202.003469,52.8204034 C202.003469,53.3592605 201.781412,53.8271429 200.99103,53.8271429 C200.199259,53.8271429 199.977203,53.3592605 199.977203,52.8204034 L199.977203,47.2678319" id="Fill-21" sketch:type="MSShapeGroup"></path>
                <path d="M211.787836,52.2560504 C212.968206,52.2560504 213.411625,51.2086555 213.411625,50.0647899 C213.411625,49.0311765 213.02372,47.8184034 211.787836,47.8321849 C210.497133,47.8321849 210.177232,49.1276471 210.177232,50.0647899 C210.177232,51.25 210.706005,52.2284874 211.787836,52.2560504 L211.787836,52.2560504 Z M215.326169,52.8762185 C215.326169,53.4963866 215.03472,53.8271429 214.411573,53.8271429 C213.814103,53.8271429 213.49559,53.4963866 213.49559,52.8762185 L213.49559,52.5599328 L213.467139,52.5599328 C213.134748,53.4143866 212.314527,53.8271429 211.329845,53.8271429 C209.636663,53.8271429 208.150966,52.6005882 208.150966,49.9958824 C208.150966,48.0664706 209.136342,46.2610924 211.273637,46.2610924 C212.176435,46.2610924 212.870362,46.6331933 213.27284,47.2809244 L213.299903,47.2809244 L213.299903,44.5514958 C213.299903,43.8913613 213.70238,43.5461345 214.31373,43.5461345 C214.925079,43.5461345 215.326169,43.8913613 215.326169,44.5514958 L215.326169,52.8762185 L215.326169,52.8762185 Z" id="Fill-22" sketch:type="MSShapeGroup"></path>
                <path d="M217.463463,47.7632773 L217.1165,47.7632773 C216.54748,47.7632773 216.311545,47.5427731 216.311545,47.1024538 C216.311545,46.6607563 216.54748,46.4402521 217.1165,46.4402521 L217.463463,46.4402521 L217.463463,45.2136975 C217.463463,44.5514958 217.865941,44.2076471 218.47729,44.2076471 C219.087252,44.2076471 219.48973,44.5514958 219.48973,45.2136975 L219.48973,46.4402521 L220.101079,46.4402521 C220.697856,46.4402521 221.017062,46.6187227 221.017062,47.1024538 C221.017062,47.5841176 220.697856,47.7632773 220.101079,47.7632773 L219.48973,47.7632773 L219.48973,51.7867899 C219.48973,52.0906723 219.656966,52.2560504 220.017114,52.2560504 L220.308563,52.2560504 C220.75337,52.2560504 221.017062,52.5041176 221.017062,52.9313445 C221.017062,53.509479 220.517435,53.8271429 219.545244,53.8271429 C218.074813,53.8271429 217.463463,53.2207563 217.463463,52.0362353 L217.463463,47.7632773" id="Fill-23" sketch:type="MSShapeGroup"></path>
                <path d="M227.345674,49.2654622 C227.233952,48.3414118 226.540025,47.6668067 225.637921,47.6668067 C224.625482,47.6668067 224.014132,48.2869748 223.791382,49.2654622 L227.345674,49.2654622 L227.345674,49.2654622 Z M223.791382,50.4231092 C223.791382,51.4842857 224.485308,52.2560504 225.666372,52.2560504 C227.192317,52.2560504 227.192317,51.2637815 228.01115,51.2637815 C228.497593,51.2637815 228.844556,51.6772269 228.844556,52.0493277 C228.844556,53.2621008 226.886989,53.8271429 225.666372,53.8271429 C222.83515,53.8271429 221.765809,51.9259832 221.765809,50.175042 C221.765809,47.8321849 223.195298,46.2610924 225.596979,46.2610924 C227.927879,46.2610924 229.260218,47.9017815 229.260218,49.5548739 C229.260218,50.2439496 229.05204,50.4231092 228.372686,50.4231092 L223.791382,50.4231092 L223.791382,50.4231092 Z" id="Fill-24" sketch:type="MSShapeGroup"></path>
                <path d="M69.9096519,67.1876303 C69.9096519,67.8636134 70.353765,68.3177143 71.0476918,68.3177143 C71.7416185,68.3177143 72.1864256,67.8636134 72.1864256,67.1876303 L72.1864256,64.5002353 L74.7116251,64.5002353 C76.9183122,64.5002353 78.1812589,63.1634286 78.1812589,61.3580504 C78.1812589,59.1530084 76.6414354,58.2165546 74.7255036,58.2165546 L71.2419913,58.2165546 C70.4370362,58.2165546 69.9096519,58.5328403 69.9096519,59.5388908 L69.9096519,67.1876303 L69.9096519,67.1876303 Z M72.1864256,59.9523361 L74.0732125,59.9523361 C75.1980678,59.9523361 75.9051791,60.3657815 75.9051791,61.3580504 C75.9051791,62.2125042 75.2251309,62.7637647 74.3091476,62.7637647 L72.1864256,62.7637647 L72.1864256,59.9523361 L72.1864256,59.9523361 Z M78.7704027,62.9980504 C78.7704027,64.3486387 79.6856921,64.8309916 80.8660616,65.1204034 L82.0589217,65.4098151 C82.7812994,65.5889748 83.2254126,65.6716639 83.2254126,66.1815798 C83.2254126,66.5950252 82.766727,66.912 82.0450431,66.912 C80.5461613,66.912 80.463584,65.6716639 79.5885424,65.6716639 C79.0202164,65.6716639 78.7704027,66.0713277 78.7704027,66.5130252 C78.7704027,67.504605 80.2970416,68.3177143 82.1290083,68.3177143 C83.6556472,68.3177143 85.2516787,67.5597311 85.2516787,65.9197311 C85.2516787,64.5140168 83.8777037,64.0316639 82.7257853,63.7698151 L81.8785007,63.5768739 C81.2546606,63.4390588 80.7966689,63.3288067 80.7966689,62.8602353 C80.7966689,62.4330084 81.2546606,62.2400672 81.9617719,62.2400672 C83.2392911,62.2400672 83.2663542,63.1634286 84.0581247,63.1634286 C84.585509,63.1634286 84.9047153,62.7499832 84.9047153,62.2814118 C84.9047153,61.3580504 83.3496255,60.7516639 81.809802,60.7516639 C80.4080699,60.7516639 78.7704027,61.3580504 78.7704027,62.9980504 L78.7704027,62.9980504 Z M87.9288482,61.5096471 C87.8039414,61.0548571 87.4299148,60.7516639 86.887958,60.7516639 C86.3473891,60.7516639 85.902582,61.1651092 85.902582,61.7163697 C85.902582,61.9506555 85.9865472,62.1711597 86.1523957,62.6535126 L88.261933,68.6209076 C88.1099631,69.2417647 87.8185138,69.2548571 87.5548217,69.2548571 L87.3459497,69.2548571 C86.8053807,69.2548571 86.4160878,69.5311765 86.4160878,70.0679664 C86.4160878,70.5503193 86.7908083,70.9920168 87.6929131,70.9920168 C88.9697383,70.9920168 89.5255737,70.2753782 90.0106285,68.8972269 L92.3567949,62.2951933 C92.4532507,62.0340336 92.5094588,61.8266218 92.5094588,61.6619328 C92.5094588,61.4131765 92.2735237,60.7516639 91.4685686,60.7516639 C90.9134272,60.7516639 90.6351626,61.1375462 90.4970711,61.6474622 L89.2611876,66.2091429 L89.2341244,66.2091429 L87.9288482,61.5096471 L87.9288482,61.5096471 Z M93.0916633,64.680084 C93.0916633,66.7879664 94.2720327,68.3177143 96.7694752,68.3177143 C98.8512555,68.3177143 99.8512039,67.1049412 99.8512039,66.2229244 C99.8512039,65.8239496 99.5181191,65.4518487 99.0046133,65.4518487 C97.9352721,65.4518487 98.2405999,66.7473109 96.8249893,66.7473109 C95.7154004,66.7473109 95.1179295,65.9335126 95.1179295,64.680084 C95.1179295,62.8602353 96.0484852,62.3234454 96.8395618,62.3234454 C98.296114,62.3234454 97.9491507,63.5079664 98.9067696,63.5079664 C99.4202754,63.5079664 99.8512039,63.2185546 99.8512039,62.6397311 C99.8512039,61.7025882 98.5875633,60.7516639 96.894382,60.7516639 C94.4108181,60.7516639 93.0916633,62.3641008 93.0916633,64.680084 L93.0916633,64.680084 Z M100.933036,67.3116639 C100.933036,67.8491429 101.155092,68.3177143 101.946863,68.3177143 C102.737939,68.3177143 102.959302,67.8491429 102.959302,67.3116639 L102.959302,63.9910084 C102.959302,62.9842689 103.792014,62.4054454 104.500513,62.4054454 C105.374861,62.4054454 105.777338,62.9842689 105.777338,63.7973782 L105.777338,67.3116639 C105.777338,67.8491429 105.999395,68.3177143 106.790472,68.3177143 C107.580854,68.3177143 107.803605,67.8491429 107.803605,67.3116639 L107.803605,63.3977143 C107.803605,61.3580504 106.471265,60.7516639 105.249954,60.7516639 C104.098036,60.7516639 103.39023,61.2898319 102.987753,61.8128403 L102.959302,61.8128403 L102.959302,59.0427563 C102.959302,58.3812437 102.556824,58.0367059 101.946863,58.0367059 C101.335513,58.0367059 100.933036,58.3812437 100.933036,59.0427563 L100.933036,67.3116639 L100.933036,67.3116639 Z M111.133759,64.5277983 C111.133759,63.2185546 111.675716,62.2400672 112.854698,62.2400672 C114.035067,62.2400672 114.575636,63.2185546 114.575636,64.5277983 C114.575636,65.7543529 114.06213,66.83 112.854698,66.83 C111.647959,66.83 111.133759,65.7543529 111.133759,64.5277983 L111.133759,64.5277983 Z M109.107493,64.5277983 C109.107493,66.5398992 110.092869,68.3177143 112.854698,68.3177143 C115.61722,68.3177143 116.602596,66.5398992 116.602596,64.5277983 C116.602596,62.4054454 115.298014,60.7516639 112.854698,60.7516639 C110.412075,60.7516639 109.107493,62.4054454 109.107493,64.5277983 L109.107493,64.5277983 Z M117.722594,67.3116639 C117.722594,67.9731765 118.125071,68.3177143 118.735727,68.3177143 C119.347076,68.3177143 119.749554,67.9731765 119.749554,67.3116639 L119.749554,59.0427563 C119.749554,58.3812437 119.347076,58.0367059 118.735727,58.0367059 C118.125071,58.0367059 117.722594,58.3812437 117.722594,59.0427563 L117.722594,67.3116639 L117.722594,67.3116639 Z M122.860428,64.5277983 C122.860428,63.2185546 123.402384,62.2400672 124.58206,62.2400672 C125.761041,62.2400672 126.302998,63.2185546 126.302998,64.5277983 C126.302998,65.7543529 125.789492,66.83 124.58206,66.83 C123.374627,66.83 122.860428,65.7543529 122.860428,64.5277983 L122.860428,64.5277983 Z M120.834161,64.5277983 C120.834161,66.5398992 121.819537,68.3177143 124.58206,68.3177143 C127.343888,68.3177143 128.329264,66.5398992 128.329264,64.5277983 C128.329264,62.4054454 127.023988,60.7516639 124.58206,60.7516639 C122.139438,60.7516639 120.834161,62.4054454 120.834161,64.5277983 L120.834161,64.5277983 Z M131.354785,64.5140168 C131.354785,63.2736807 131.757263,62.3234454 133.061151,62.3234454 C134.005585,62.3234454 134.560727,62.9704874 134.560727,64.4313277 C134.560727,65.864605 133.8668,66.4578992 132.964695,66.4578992 C131.812777,66.4578992 131.354785,65.4373782 131.354785,64.5140168 L131.354785,64.5140168 Z M136.503028,61.7025882 C136.503028,61.0824202 136.212272,60.7516639 135.587044,60.7516639 C134.990961,60.7516639 134.671755,61.0824202 134.671755,61.7025882 L134.671755,61.9506555 L134.643998,61.9506555 C134.269278,61.2064538 133.49208,60.7516639 132.506704,60.7516639 C130.799644,60.7516639 129.328519,61.9782185 129.328519,64.5829244 C129.328519,66.5674622 130.438108,67.9456134 132.575402,67.9456134 C133.380357,67.9456134 134.172128,67.504605 134.53297,66.9809076 L134.560727,66.9809076 L134.560727,67.3943529 C134.560727,68.9792269 134.061099,69.599395 132.82591,69.599395 C131.68787,69.599395 131.521328,68.5657815 130.674043,68.5657815 C130.22993,68.5657815 129.842025,68.9247899 129.842025,69.4202353 C129.842025,70.3987227 131.354785,71.0877983 132.895303,71.0877983 C135.004146,71.0877983 136.503028,69.9714958 136.503028,67.5466387 L136.503028,61.7025882 L136.503028,61.7025882 Z M138.22466,67.3116639 C138.22466,67.8491429 138.446717,68.3177143 139.237793,68.3177143 C140.02887,68.3177143 140.250926,67.8491429 140.250926,67.3116639 L140.250926,61.7577143 C140.250926,61.2202353 140.02887,60.7516639 139.237793,60.7516639 C138.446717,60.7516639 138.22466,61.2202353 138.22466,61.7577143 L138.22466,67.3116639 L138.22466,67.3116639 Z M138.182331,59.0289748 C138.182331,59.6077983 138.654201,60.0763697 139.237793,60.0763697 C139.820692,60.0763697 140.291868,59.6077983 140.291868,59.0289748 C140.291868,58.4501513 139.820692,57.9815798 139.237793,57.9815798 C138.654201,57.9815798 138.182331,58.4501513 138.182331,59.0289748 L138.182331,59.0289748 Z M148.272026,64.9136807 C148.952768,64.9136807 149.160946,64.734521 149.160946,64.0454454 C149.160946,62.3916639 147.828606,60.7516639 145.496319,60.7516639 C143.095332,60.7516639 141.666537,62.3234454 141.666537,64.6656134 C141.666537,66.4158655 142.735184,68.3177143 145.566405,68.3177143 C146.787716,68.3177143 148.74459,67.7526723 148.74459,66.5398992 C148.74459,66.1684874 148.397626,65.7543529 147.911878,65.7543529 C147.09235,65.7543529 147.09235,66.7473109 145.566405,66.7473109 C144.38673,66.7473109 143.692803,65.9748571 143.692803,64.9136807 L148.272026,64.9136807 L148.272026,64.9136807 Z M143.692803,63.7567227 C143.914166,62.7775462 144.525515,62.1573782 145.537954,62.1573782 C146.440753,62.1573782 147.13468,62.8326723 147.245708,63.7567227 L143.692803,63.7567227 L143.692803,63.7567227 Z" id="Fill-25" sketch:type="MSShapeGroup"></path>
                <path d="M49.1640173,81.2592437 C49.1723445,81.2592437 49.1806716,81.2578655 49.1883048,81.2578655 C49.1758141,81.2578655 49.1640173,81.2592437 49.1515267,81.2592437 L49.1640173,81.2592437" id="Fill-26" sketch:type="MSShapeGroup"></path>
                <path d="M52.3671833,58.2957983 C52.3671833,58.2971765 52.2471339,58.7340504 52.2471339,58.7340504 L52.0923883,59.3900504 C52.0923883,59.3900504 49.6185394,70.3112101 49.2278586,72.0338992 C49.1300149,71.5832437 46.7547036,60.6882689 46.7547036,60.6882689 C46.6506146,60.224521 46.5069718,59.6202017 46.3272447,59.058605 L46.163478,58.5927899 C45.4737148,56.9417647 43.8665804,55.8743866 42.0658405,55.8743866 C40.3449021,55.8743866 38.7662187,56.8769916 38.0424531,58.4301681 C37.9182402,58.7547227 37.8051301,59.1137311 37.6989593,59.5382017 C37.597646,59.933042 37.512987,60.3347731 37.436655,60.6896471 C37.436655,60.6896471 35.3389144,70.4710756 34.9940328,72.0800672 C34.887862,71.6397479 31.9171615,59.3804034 31.9171615,59.3804034 L31.7887851,58.8594622 C31.7062078,58.5362857 31.6312637,58.2820168 31.5514621,58.056 C30.9824422,56.7343529 29.6827173,55.8798992 28.2393497,55.8743866 C27.194296,55.878521 26.1936536,56.3305546 25.4948693,57.1154118 C24.9834453,57.7011261 24.682975,58.4184538 24.6246852,59.1895294 C24.6246852,59.1909076 24.6205216,59.3459496 24.6205216,59.3459496 C24.6205216,59.5581849 24.6295427,59.7655966 24.6503605,59.9805882 C24.7225288,60.7247899 24.9098891,61.317395 25.09031,61.8893277 L29.913795,77.4727731 L30.0185779,77.8035294 L30.264228,78.5181008 C31.0067296,80.2063361 32.680481,81.3026555 34.5325715,81.3109244 L34.5672678,81.3109244 C36.4936085,81.3067899 38.1965048,80.1532773 38.9063919,78.3720168 C38.9077798,78.3671933 39.1291424,77.5892269 39.1291424,77.5892269 C39.1291424,77.5850924 39.1666144,77.4403866 39.1666144,77.4403866 C39.1666144,77.4403866 41.9083191,66.5943361 42.0061628,66.2036303 C42.1067821,66.601916 44.8824892,77.5857815 44.8824892,77.5857815 L45.0865037,78.3113782 C45.7714094,80.1022857 47.5242684,81.3054118 49.4478334,81.3109244 L49.4873872,81.3109244 C51.2985361,81.3019664 52.9591028,80.2373445 53.7161769,78.6007899 C53.8147145,78.3396303 53.9118643,78.0571092 54.0152593,77.7325546 L54.0978366,77.471395 L58.9213216,61.8893277 C59.1024365,61.3132605 59.2891028,60.7192773 59.3612711,59.9805882 C59.381395,59.7655966 59.3918039,59.5581849 59.3918039,59.3459496 L59.3876404,59.1895294 C59.3293505,58.4170756 59.0267984,57.6990588 58.5167623,57.1140336 C57.8145084,56.3291765 56.8152538,55.878521 55.7736698,55.8743866 C54.2352341,55.8798992 52.8681984,56.8528739 52.3671833,58.2957983" id="Fill-27" sketch:type="MSShapeGroup"></path>
                <path d="M36.1050096,23.4147899 L36.1043156,50.283916 C36.1050096,52.3504538 37.7981909,54.0317983 39.8792772,54.0317983 C41.9326065,54.0317983 43.6257878,52.3731933 43.6542388,50.3349076 L43.6542388,39.4923025 C43.6542388,36.6071429 46.0010991,34.8210588 48.1765595,34.8210588 C51.365847,34.8210588 51.8425746,37.3541008 51.8425746,38.8645546 L51.8425746,50.283916 L51.8439625,50.3459328 C51.877271,52.3773277 53.5683705,54.0311092 55.6147605,54.0317983 C57.6986226,54.0317983 59.3924978,52.3504538 59.3924978,50.283916 L59.3924978,37.5663361 C59.3924978,31.8821513 56.1102242,28.4891429 50.6122425,28.4891429 C47.8289022,28.4891429 45.434161,29.4483361 43.6542388,31.2544034 L43.6542388,23.4147899 L43.652851,23.3479496 C43.6167668,21.3172437 41.9228915,19.6655294 39.8792772,19.6655294 C37.7981909,19.6655294 36.1050096,21.3482521 36.1050096,23.4147899" id="Fill-28" sketch:type="MSShapeGroup"></path>
                <path d="M16.430104,71.8402689 C16.430104,74.2589244 14.2192533,76.5866218 10.6115281,76.5866218 C8.35765395,76.5866218 6.95939152,75.3772941 6.95939152,73.8992269 C6.95939152,71.9291597 8.44647658,71.0774622 11.1985901,70.6757311 L13.5884739,70.3167227 C14.354569,70.1823529 15.7077262,69.9577143 16.430104,69.2858655 L16.430104,71.8402689 L16.430104,71.8402689 Z M23.8315269,77.1351261 C23.6358395,76.4639664 23.3894955,75.6288067 23.3894955,73.9894958 L23.3894955,63.0173445 C23.3894955,58.4453277 19.4597883,55.9274454 12.3262211,55.9274454 C5.63052177,55.9274454 1.50512715,59.0778992 1.50512715,62.1001849 C1.50512715,63.777395 2.87355073,65.1369412 4.5632624,65.1369412 C5.29604907,65.1369412 5.96915803,64.8812941 6.49515452,64.4526891 C6.83101507,64.2053109 7.14050641,63.9103866 7.45485523,63.6065042 C8.47076401,62.6238824 9.62268244,61.5096471 12.280422,61.5096471 C14.1054493,61.5096471 16.0546896,62.1181008 16.0546896,63.8242521 C16.0546896,65.3140336 15.2087929,65.6826891 13.5468383,65.8714958 L9.53385982,66.3180168 C4.81793353,66.8603193 0,68.2267563 0,74.2127563 C0,78.6221513 3.97342465,81.2592437 7.81639107,81.2592437 C11.4255042,81.2592437 14.2192533,80.1739496 16.5515412,77.891042 C16.9179345,80.0664538 18.3640779,81.2592437 20.7137139,81.2592437 C22.5942555,81.2592437 24.066768,79.9934118 24.066768,78.3775294 C24.066768,77.9330756 23.9578215,77.563042 23.8315269,77.1351261 L23.8315269,77.1351261 Z" id="Fill-29" sketch:type="MSShapeGroup"></path>
                <path d="M12.4247587,32.981916 L12.4247587,32.9777815 L12.4247587,32.981916" id="Fill-30" sketch:type="MSShapeGroup"></path>
                <path d="M15.4606883,29.6523025 C15.1060917,29.6523025 14.7605162,29.7005378 14.430901,29.7956303 C13.1679543,30.2056303 12.3199758,31.3639664 12.3185879,32.681479 C12.3185879,34.0017479 13.1644846,35.1635294 14.4260435,35.5721513 C14.7591284,35.6679328 15.1060917,35.7161681 15.4606883,35.7161681 L23.8766321,35.7161681 C23.555344,36.0634622 12.2207442,48.3028235 12.2207442,48.3028235 C11.5670652,49.0008571 11.2360622,49.9076807 11.2360622,50.9998655 L11.2395318,51.1452605 C11.3061488,52.471042 12.3359361,53.937395 14.4433917,54.0283529 L14.6494879,54.0317983 L31.4258614,54.0317983 C31.7860094,54.0317983 32.1371363,53.9821849 32.471609,53.8843361 C33.7269225,53.4715798 34.5693496,52.3118655 34.5693496,50.9998655 C34.5693496,49.6864874 33.7262286,48.526084 32.4702212,48.116084 L32.4667515,48.1147059 C32.1343606,48.0175462 31.7839276,47.9672437 31.4258614,47.9672437 L21.6970081,47.9672437 C22.0169084,47.6220168 33.1356969,35.5156471 33.1356969,35.5156471 C33.8747289,34.7301008 34.2994121,33.8122521 34.2994121,32.9984538 L34.2890032,32.681479 C34.2536129,32.1315966 34.1238486,31.6368403 33.9052617,31.2130588 C33.5582983,30.5398319 32.9885845,30.0595462 32.2592674,29.8238824 C31.9067526,29.7101849 31.5209293,29.6523025 31.1101247,29.6523025 L15.4606883,29.6523025" id="Fill-31" sketch:type="MSShapeGroup"></path>
                <path d="M0.166542423,3.29378151 L2.31285791,0.634638655 L0.33030914,0.634638655 L0.33030914,0.250134454 L2.85412078,0.250134454 L2.85412078,0.634638655 L0.712662787,3.29378151 L2.91241063,3.29378151 L2.91241063,3.67759664 L0.166542423,3.67759664 L0.166542423,3.29378151" id="Fill-32" sketch:type="MSShapeGroup"></path>
                <path d="M4.54660816,0.336957983 L4.98100632,0.336957983 L4.98100632,0.836537815 L4.54660816,0.836537815 L4.54660816,0.336957983 Z M3.63687017,0.336957983 L4.07126833,0.336957983 L4.07126833,0.836537815 L3.63687017,0.836537815 L3.63687017,0.336957983 Z M5.34393001,3.67759664 L4.95741281,3.67759664 L4.95741281,3.28482353 L4.94769783,3.28482353 C4.77352221,3.59215126 4.49248187,3.73616807 4.13510959,3.73616807 C3.47796094,3.73616807 3.2746404,3.36131092 3.2746404,2.82796639 L3.2746404,1.19623529 L3.68544505,1.19623529 L3.68544505,2.87689076 C3.68544505,3.17939496 3.87905061,3.37509244 4.19339944,3.37509244 C4.690251,3.37509244 4.93243144,3.04433613 4.93243144,2.59781513 L4.93243144,1.19623529 L5.34393001,1.19623529 L5.34393001,3.67759664 L5.34393001,3.67759664 Z" id="Fill-33" sketch:type="MSShapeGroup"></path>
                <path d="M5.9476463,1.19623529 L6.33485743,1.19623529 L6.33485743,1.71993277 L6.34457241,1.71993277 C6.54234154,1.32164706 6.81852439,1.12457143 7.26263752,1.13835294 L7.26263752,1.57109244 C6.60063138,1.57109244 6.35914487,1.9452605 6.35914487,2.57507563 L6.35914487,3.67759664 L5.9476463,3.67759664 L5.9476463,1.19623529" id="Fill-34" sketch:type="MSShapeGroup"></path>
                <path d="M9.27988262,1.99280672 C9.21673529,1.68065546 8.99884228,1.4987395 8.66020602,1.4987395 C8.06620471,1.4987395 7.88162019,1.96455462 7.88162019,2.46895798 C7.88162019,2.92512605 8.09049215,3.37509244 8.613019,3.37509244 C9.00855726,3.37509244 9.24588021,3.14494118 9.29861864,2.77077311 L9.71983219,2.77077311 C9.62753993,3.37509244 9.24588021,3.73616807 8.61648863,3.73616807 C7.85316919,3.73616807 7.44791596,3.20833613 7.44791596,2.46895798 C7.44791596,1.7247563 7.83373924,1.13835294 8.62689754,1.13835294 C9.19244785,1.13835294 9.64696988,1.40295798 9.70525973,1.99280672 L9.27988262,1.99280672" id="Fill-35" sketch:type="MSShapeGroup"></path>
                <path d="M10.2034991,0.250134454 L10.6136099,0.250134454 L10.6136099,1.56144538 L10.6233248,1.56144538 C10.7586406,1.26376471 11.1118493,1.13835294 11.4109317,1.13835294 C12.0680804,1.13835294 12.2720948,1.51321008 12.2720948,2.04586555 L12.2720948,3.67759664 L11.8612902,3.67759664 L11.8612902,1.99763025 C11.8612902,1.69581513 11.6676846,1.4987395 11.3533358,1.4987395 C10.8557903,1.4987395 10.6136099,1.83018487 10.6136099,2.27601681 L10.6136099,3.67759664 L10.2034991,3.67759664 L10.2034991,0.250134454" id="Fill-36" sketch:type="MSShapeGroup"></path>
                <path d="M14.5773195,2.19952941 C14.5578896,1.81157983 14.2643586,1.4987395 13.8570236,1.4987395 C13.4274829,1.4987395 13.17073,1.81984874 13.142279,2.19952941 L14.5773195,2.19952941 L14.5773195,2.19952941 Z M14.9742457,2.89136134 C14.8632174,3.43848739 14.4669852,3.73616807 13.9055984,3.73616807 C13.1075827,3.73616807 12.7314743,3.18904202 12.7071869,2.42968067 C12.7071869,1.68547899 13.1998749,1.13835294 13.881311,1.13835294 C14.7660676,1.13835294 15.0366991,1.95973109 15.0131055,2.55991597 L13.142279,2.55991597 C13.1277065,2.99196639 13.3740505,3.37509244 13.9201709,3.37509244 C14.2581132,3.37509244 14.4961301,3.21315966 14.5682985,2.89136134 L14.9742457,2.89136134 L14.9742457,2.89136134 Z" id="Fill-37" sketch:type="MSShapeGroup"></path>
                <path d="M15.4620762,1.19623529 L15.8492873,1.19623529 L15.8492873,1.71993277 L15.8583083,1.71993277 C16.0574653,1.32164706 16.3322603,1.12457143 16.7770674,1.13835294 L16.7770674,1.57109244 C16.1150613,1.57109244 15.8735747,1.9452605 15.8735747,2.57507563 L15.8735747,3.67759664 L15.4620762,3.67759664 L15.4620762,1.19623529" id="Fill-38" sketch:type="MSShapeGroup"></path>
                <path d="M18.4986997,0.250134454 L18.9573853,0.250134454 L18.9573853,1.7247563 L20.7754734,1.7247563 L20.7754734,0.250134454 L21.2348529,0.250134454 L21.2348529,3.67759664 L20.7754734,3.67759664 L20.7754734,2.10788235 L18.9573853,2.10788235 L18.9573853,3.67759664 L18.4986997,3.67759664 L18.4986997,0.250134454" id="Fill-39" sketch:type="MSShapeGroup"></path>
                <path d="M22.9412188,3.37509244 C23.3714534,3.37509244 23.7191107,3.03951261 23.7191107,2.44001681 C23.7191107,1.8350084 23.3714534,1.4987395 22.9412188,1.4987395 C22.5102903,1.4987395 22.162633,1.8350084 22.162633,2.44001681 C22.162633,3.03951261 22.5102903,3.37509244 22.9412188,3.37509244 M22.9412188,1.13835294 C23.7336832,1.13835294 24.1542028,1.70959664 24.1542028,2.44001681 C24.1542028,3.16423529 23.7336832,3.73616807 22.9412188,3.73616807 C22.1480605,3.73616807 21.7275409,3.16423529 21.7275409,2.44001681 C21.7275409,1.70959664 22.1480605,1.13835294 22.9412188,1.13835294" id="Fill-40" sketch:type="MSShapeGroup"></path>
                <path d="M26.2956608,1.99280672 C26.2325135,1.68065546 26.0146205,1.4987395 25.6766781,1.4987395 C25.0819829,1.4987395 24.8980923,1.96455462 24.8980923,2.46895798 C24.8980923,2.92512605 25.1062703,3.37509244 25.6281033,3.37509244 C26.0243354,3.37509244 26.2616584,3.14494118 26.3150908,2.77077311 L26.7349165,2.77077311 C26.644012,3.37509244 26.2616584,3.73616807 25.6322668,3.73616807 C24.8689474,3.73616807 24.4630002,3.20833613 24.4630002,2.46895798 C24.4630002,1.7247563 24.8502114,1.13835294 25.6426757,1.13835294 C26.208226,1.13835294 26.663442,1.40295798 26.7210379,1.99280672 L26.2956608,1.99280672" id="Fill-41" sketch:type="MSShapeGroup"></path>
                <path d="M27.2185834,0.250134454 L27.6293881,0.250134454 L27.6293881,1.56144538 L27.639797,1.56144538 C27.7744187,1.26376471 28.1276275,1.13835294 28.4274038,1.13835294 C29.0845525,1.13835294 29.287873,1.51321008 29.287873,2.04586555 L29.287873,3.67759664 L28.8763744,3.67759664 L28.8763744,1.99763025 C28.8763744,1.69581513 28.6827689,1.4987395 28.369114,1.4987395 C27.8715685,1.4987395 27.6293881,1.83018487 27.6293881,2.27601681 L27.6293881,3.67759664 L27.2185834,3.67759664 L27.2185834,0.250134454" id="Fill-42" sketch:type="MSShapeGroup"></path>
                <path d="M30.1580572,2.8954958 C30.1726296,3.26070588 30.491142,3.37509244 30.8297783,3.37509244 C31.0858373,3.37509244 31.4334946,3.31789916 31.4334946,3.00643697 C31.4334946,2.69015126 31.0282413,2.63640336 30.6174367,2.5447563 C30.2107956,2.45379832 29.799991,2.32011765 29.799991,1.84396639 C29.799991,1.34576471 30.2982304,1.13835294 30.7333225,1.13835294 C31.2843003,1.13835294 31.7242499,1.312 31.7582523,1.91631933 L31.3474477,1.91631933 C31.3176088,1.59865546 31.0379563,1.4987395 30.766631,1.4987395 C30.520287,1.4987395 30.2350831,1.56626891 30.2350831,1.81571429 C30.2350831,2.10788235 30.6694812,2.15680672 31.0525288,2.24776471 C31.4626395,2.33872269 31.8692806,2.47378151 31.8692806,2.95337815 C31.8692806,3.54322689 31.3127513,3.73616807 30.8061848,3.73616807 C30.244798,3.73616807 29.770846,3.50946218 29.7465586,2.8954958 L30.1580572,2.8954958" id="Fill-43" sketch:type="MSShapeGroup"></path>
                <path d="M33.9913086,1.99280672 C33.9288552,1.68065546 33.7109622,1.4987395 33.3730199,1.4987395 C32.7783246,1.4987395 32.5944341,1.96455462 32.5944341,2.46895798 C32.5944341,2.92512605 32.8026121,3.37509244 33.324445,3.37509244 C33.7199833,3.37509244 33.9573062,3.14494118 34.0100447,2.77077311 L34.4312582,2.77077311 C34.3396599,3.37509244 33.9573062,3.73616807 33.3286086,3.73616807 C32.5652891,3.73616807 32.159342,3.20833613 32.159342,2.46895798 C32.159342,1.7247563 32.5451653,1.13835294 33.3383235,1.13835294 C33.9045678,1.13835294 34.3590898,1.40295798 34.4173797,1.99280672 L33.9913086,1.99280672" id="Fill-44" sketch:type="MSShapeGroup"></path>
                <path d="M34.9149252,0.250134454 L35.3257298,0.250134454 L35.3257298,1.56144538 L35.3361387,1.56144538 C35.4700666,1.26376471 35.8246631,1.13835294 36.1230517,1.13835294 C36.7808942,1.13835294 36.9835208,1.51321008 36.9835208,2.04586555 L36.9835208,3.67759664 L36.5720223,3.67759664 L36.5720223,1.99763025 C36.5720223,1.69581513 36.3791106,1.4987395 36.0654557,1.4987395 C35.5672163,1.4987395 35.3257298,1.83018487 35.3257298,2.27601681 L35.3257298,3.67759664 L34.9149252,3.67759664 L34.9149252,0.250134454" id="Fill-45" sketch:type="MSShapeGroup"></path>
                <path d="M39.6419543,3.67759664 L39.2554371,3.67759664 L39.2554371,3.28482353 L39.246416,3.28482353 C39.0722404,3.59215126 38.7912001,3.73616807 38.4338278,3.73616807 C37.7766791,3.73616807 37.5740525,3.36131092 37.5740525,2.82796639 L37.5740525,1.19623529 L37.9841632,1.19623529 L37.9841632,2.87689076 C37.9841632,3.17939496 38.1777688,3.37509244 38.4928116,3.37509244 C38.9896631,3.37509244 39.2318436,3.04433613 39.2318436,2.59781513 L39.2318436,1.19623529 L39.6419543,1.19623529 L39.6419543,3.67759664" id="Fill-46" sketch:type="MSShapeGroup"></path>
                <path d="M40.2859183,0.250134454 L40.696723,0.250134454 L40.696723,3.67759664 L40.2859183,3.67759664 L40.2859183,0.250134454 Z" id="Fill-47" sketch:type="MSShapeGroup"></path>
                <path d="M43.0310926,2.19952941 C43.0109687,1.81157983 42.7167438,1.4987395 42.3107966,1.4987395 C41.8798681,1.4987395 41.624503,1.81984874 41.5953581,2.19952941 L43.0310926,2.19952941 L43.0310926,2.19952941 Z M43.4273248,2.89136134 C43.3156026,3.43848739 42.9193704,3.73616807 42.3593715,3.73616807 C41.5613557,3.73616807 41.1845535,3.18904202 41.160266,2.42968067 C41.160266,1.68547899 41.653648,1.13835294 42.335084,1.13835294 C43.2198407,1.13835294 43.4904721,1.95973109 43.4661847,2.55991597 L41.5953581,2.55991597 C41.5807857,2.99196639 41.8278236,3.37509244 42.3746379,3.37509244 C42.7118863,3.37509244 42.9485153,3.21315966 43.0206837,2.89136134 L43.4273248,2.89136134 L43.4273248,2.89136134 Z" id="Fill-48" sketch:type="MSShapeGroup"></path>
                <path d="M0.537793242,7.55640336 L0.117273623,7.55640336 L0.117273623,7.19739496 L0.537793242,7.19739496 L0.537793242,6.82667227 C0.537793242,6.4242521 0.779973683,6.21201681 1.22963823,6.21201681 C1.30805195,6.21201681 1.41838631,6.22717647 1.49541218,6.25129412 L1.49541218,6.60616807 C1.42324379,6.58205042 1.33580902,6.57309244 1.26364064,6.57309244 C1.06517758,6.57309244 0.949985741,6.63510924 0.949985741,6.85147899 L0.949985741,7.19739496 L1.43226484,7.19739496 L1.43226484,7.55640336 L0.949985741,7.55640336 L0.949985741,9.67806723 L0.537793242,9.67806723 L0.537793242,7.55640336" id="Fill-49" sketch:type="MSShapeGroup"></path>
                <path d="M3.07201379,6.33742857 L3.50641194,6.33742857 L3.50641194,6.83631933 L3.07201379,6.83631933 L3.07201379,6.33742857 Z M2.16296972,6.33742857 L2.59806181,6.33742857 L2.59806181,6.83631933 L2.16296972,6.83631933 L2.16296972,6.33742857 Z M3.86933564,9.67806723 L3.48281843,9.67806723 L3.48281843,9.28529412 L3.47310346,9.28529412 C3.29823391,9.59193277 3.01858143,9.73663866 2.65982129,9.73663866 C2.00336657,9.73663866 1.80004603,9.36109244 1.80004603,8.82912605 L1.80004603,7.19739496 L2.21085067,7.19739496 L2.21085067,8.87667227 C2.21085067,9.17917647 2.40445624,9.3762521 2.71811114,9.3762521 C3.21704448,9.3762521 3.45853099,9.04480672 3.45853099,8.59897479 L3.45853099,7.19739496 L3.86933564,7.19739496 L3.86933564,9.67806723 L3.86933564,9.67806723 Z" id="Fill-50" sketch:type="MSShapeGroup"></path>
                <path d="M4.49803329,7.19739496 L4.8845505,7.19739496 L4.8845505,7.72040336 L4.89426547,7.72040336 C5.0920346,7.32142857 5.36752352,7.12504202 5.81233058,7.13951261 L5.81233058,7.57156303 C5.15032445,7.57156303 4.90814401,7.94642017 4.90814401,8.57554622 L4.90814401,9.67806723 L4.49803329,9.67806723 L4.49803329,7.19739496" id="Fill-51" sketch:type="MSShapeGroup"></path>
                <path d="M8.06967434,8.26201681 L9.2403288,8.26201681 L8.66436958,6.66405042 L8.65465461,6.66405042 L8.06967434,8.26201681 L8.06967434,8.26201681 Z M8.41316809,6.25129412 L8.92112248,6.25129412 L10.2694222,9.67806723 L9.76216172,9.67806723 L9.38466556,8.64652101 L7.92533758,8.64652101 L7.53812644,9.67806723 L7.06486839,9.67806723 L8.41316809,6.25129412 L8.41316809,6.25129412 Z" id="Fill-52" sketch:type="MSShapeGroup"></path>
                <path d="M10.5400536,7.19739496 L10.9265708,7.19739496 L10.9265708,7.59085714 L10.9369797,7.59085714 C11.1104614,7.28352941 11.3915018,7.13951261 11.7481801,7.13951261 C12.4060227,7.13951261 12.6093432,7.51436975 12.6093432,8.04564706 L12.6093432,9.67806723 L12.1985386,9.67806723 L12.1985386,7.99810084 C12.1985386,7.69628571 12.004933,7.49852101 11.6905842,7.49852101 C11.1930387,7.49852101 10.9515522,7.83065546 10.9515522,8.27648739 L10.9515522,9.67806723 L10.5400536,9.67806723 L10.5400536,7.19739496" id="Fill-53" sketch:type="MSShapeGroup"></path>
                <path d="M14.9777153,8.38742857 C14.9777153,7.95055462 14.7848036,7.49852101 14.2678282,7.49852101 C13.7397499,7.49852101 13.5274083,7.92712605 13.5274083,8.40258824 C13.5274083,8.84773109 13.6911751,9.348 14.2331319,9.348 C14.7750887,9.348 14.9777153,8.85255462 14.9777153,8.38742857 M15.3843564,9.46789916 C15.3843564,10.2741176 15.0117177,10.687563 14.2241108,10.687563 C13.7550163,10.687563 13.2144474,10.4987563 13.189466,9.95714286 L13.6002707,9.95714286 C13.6197006,10.2555126 13.9777668,10.359563 14.2477043,10.359563 C14.7848036,10.359563 14.9971452,9.97643697 14.9971452,9.41966387 L14.9971452,9.25635294 L14.9874303,9.25635294 C14.8528085,9.55816807 14.5238872,9.7070084 14.2095384,9.7070084 C13.4649549,9.7070084 13.0923163,9.12611765 13.0923163,8.44944538 C13.0923163,7.86442017 13.3823777,7.13951261 14.2477043,7.13951261 C14.5620532,7.13951261 14.8430935,7.27870588 14.9922877,7.55157983 L14.9874303,7.55157983 L14.9971452,7.55157983 L14.9971452,7.19739496 L15.3843564,7.19739496 L15.3843564,9.46789916" id="Fill-54" sketch:type="MSShapeGroup"></path>
                <path d="M17.737462,8.2 C17.718726,7.81136134 17.4231132,7.49852101 17.017166,7.49852101 C16.5876254,7.49852101 16.3315664,7.8210084 16.3024215,8.2 L17.737462,8.2 L17.737462,8.2 Z M18.1350821,8.89252101 C18.0233599,9.43826891 17.6271277,9.73663866 17.0657409,9.73663866 C16.2684191,9.73663866 15.8916168,9.18882353 15.8673294,8.43084034 C15.8673294,7.68732773 16.3607113,7.13951261 17.0421474,7.13951261 C17.926904,7.13951261 18.1975355,7.95951261 18.173248,8.56038655 L16.3024215,8.56038655 C16.287849,8.9917479 16.534193,9.3762521 17.0810073,9.3762521 C17.4189496,9.3762521 17.6562726,9.21363025 17.728441,8.89252101 L18.1350821,8.89252101 L18.1350821,8.89252101 Z" id="Fill-55" sketch:type="MSShapeGroup"></path>
                <path d="M21.073168,9.67806723 L20.6387698,9.67806723 L20.1308154,7.70662185 L20.1211005,7.70662185 L19.6180036,9.67806723 L19.1738904,9.67806723 L18.3710172,7.19739496 L18.8262331,7.19739496 L19.3910895,9.22810084 L19.4021923,9.22810084 L19.9039014,7.19739496 L20.3535659,7.19739496 L20.8753989,9.22810084 L20.8851138,9.22810084 L21.4465006,7.19739496 L21.8718777,7.19739496 L21.073168,9.67806723" id="Fill-56" sketch:type="MSShapeGroup"></path>
                <path d="M23.8100151,8.39638655 C23.6497181,8.51215126 23.3409206,8.51697479 23.0654317,8.56589916 C22.7948003,8.6127563 22.5623348,8.70853782 22.5623348,9.01104202 C22.5623348,9.27978151 22.7948003,9.3762521 23.0460018,9.3762521 C23.5872647,9.3762521 23.8100151,9.03998319 23.8100151,8.81465546 L23.8100151,8.39638655 L23.8100151,8.39638655 Z M24.4768788,9.66910924 C24.4047104,9.71183193 24.3124181,9.73663866 24.1826538,9.73663866 C23.9696183,9.73663866 23.8336087,9.62087395 23.8336087,9.35282353 C23.6066946,9.61605042 23.3020608,9.73663866 22.9544034,9.73663866 C22.4998814,9.73663866 22.1272427,9.5347395 22.1272427,9.03998319 C22.1272427,8.47907563 22.5484563,8.35848739 22.9731395,8.27648739 C23.4276615,8.19035294 23.8141787,8.21860504 23.8141787,7.91196639 C23.8141787,7.55640336 23.5192598,7.49852101 23.2583434,7.49852101 C22.9106861,7.49852101 22.6546271,7.60463866 22.6351971,7.97053782 L22.2236986,7.97053782 C22.2486799,7.35519328 22.7274894,7.13951261 23.2833247,7.13951261 C23.7322953,7.13951261 24.2201259,7.24011765 24.2201259,7.8210084 L24.2201259,9.09717647 C24.2201259,9.28942857 24.2201259,9.3762521 24.351278,9.3762521 C24.3852804,9.3762521 24.4241403,9.37280672 24.4768788,9.35282353 L24.4768788,9.66910924 L24.4768788,9.66910924 Z" id="Fill-57" sketch:type="MSShapeGroup"></path>
                <path d="M24.9071134,7.19739496 L25.2936306,7.19739496 L25.2936306,7.59085714 L25.3033455,7.59085714 C25.4775212,7.28352941 25.7585615,7.13951261 26.1152399,7.13951261 C26.7730824,7.13951261 26.976403,7.51436975 26.976403,8.04564706 L26.976403,9.67806723 L26.5655983,9.67806723 L26.5655983,7.99810084 C26.5655983,7.69628571 26.3726867,7.49852101 26.0576439,7.49852101 C25.5594045,7.49852101 25.3193059,7.83065546 25.3193059,8.27648739 L25.3193059,9.67806723 L24.9071134,9.67806723 L24.9071134,7.19739496" id="Fill-58" sketch:type="MSShapeGroup"></path>
                <path d="M28.6688903,9.3762521 C29.2198682,9.3762521 29.4322098,8.90561345 29.4322098,8.43979832 C29.4322098,7.95055462 29.2094593,7.49852101 28.643909,7.49852101 C28.0839101,7.49852101 27.8944681,7.97467227 27.8944681,8.45909244 C27.8944681,8.92421849 28.1359546,9.3762521 28.6688903,9.3762521 M29.828442,9.67806723 L29.4176373,9.67806723 L29.4176373,9.34317647 L29.4079224,9.34317647 C29.2726066,9.61605042 28.9540942,9.73663866 28.6099066,9.73663866 C27.8410357,9.73663866 27.459376,9.13163025 27.459376,8.43084034 C27.459376,7.72936134 27.8375661,7.13951261 28.6001916,7.13951261 C28.8569445,7.13951261 29.2247257,7.23460504 29.4079224,7.52746218 L29.4176373,7.52746218 L29.4176373,6.25129412 L29.828442,6.25129412 L29.828442,9.67806723" id="Fill-59" sketch:type="MSShapeGroup"></path>
                <path d="M31.0559984,7.19739496 L31.5542378,7.19739496 L31.5542378,7.55640336 L31.0559984,7.55640336 L31.0559984,9.09717647 C31.0559984,9.28529412 31.1094308,9.31905882 31.3661837,9.31905882 L31.5542378,9.31905882 L31.5542378,9.67806723 L31.239889,9.67806723 C30.8145119,9.67806723 30.6451938,9.59193277 30.6451938,9.13576471 L30.6451938,7.55640336 L30.2198167,7.55640336 L30.2198167,7.19739496 L30.6451938,7.19739496 L30.6451938,6.4525042 L31.0559984,6.4525042 L31.0559984,7.19739496" id="Fill-60" sketch:type="MSShapeGroup"></path>
                <path d="M33.6228335,8.2 C33.6040975,7.81136134 33.3091786,7.49852101 32.9025375,7.49852101 C32.4723029,7.49852101 32.21555,7.8210084 32.187099,8.2 L33.6228335,8.2 L33.6228335,8.2 Z M34.0197596,8.89252101 C33.9080374,9.43826891 33.5118052,9.73663866 32.9504185,9.73663866 C32.1530966,9.73663866 31.7762944,9.18882353 31.7527009,8.43084034 C31.7527009,7.68732773 32.2453889,7.13951261 32.9275189,7.13951261 C33.8115816,7.13951261 34.0815191,7.95951261 34.0579256,8.56038655 L32.187099,8.56038655 C32.1732205,8.9917479 32.4195645,9.3762521 32.9656849,9.3762521 C33.3043211,9.3762521 33.5409502,9.21363025 33.6138125,8.89252101 L34.0197596,8.89252101 L34.0197596,8.89252101 Z" id="Fill-61" sketch:type="MSShapeGroup"></path>
                <path d="M38.9841117,9.67806723 L38.5053022,9.67806723 L37.7176954,6.79842017 L37.7072865,6.79842017 L36.9099646,9.67806723 L36.4318491,9.67806723 L35.5470924,6.25129412 L36.0161869,6.25129412 L36.6927655,9.10268908 L36.7031744,9.10268908 L37.4755149,6.25129412 L37.9737543,6.25129412 L38.7384616,9.10268908 L38.7474827,9.10268908 L39.4483487,6.25129412 L39.9077282,6.25129412 L38.9841117,9.67806723" id="Fill-62" sketch:type="MSShapeGroup"></path>
                <path d="M40.250528,7.19739496 L40.6613327,7.19739496 L40.6613327,9.6787563 L40.250528,9.6787563 L40.250528,7.19739496 Z M40.250528,6.25129412 L40.6613327,6.25129412 L40.6613327,6.75018487 L40.250528,6.75018487 L40.250528,6.25129412 Z" id="Fill-63" sketch:type="MSShapeGroup"></path>
                <path d="M41.5995217,8.89596639 C41.6134002,9.26186555 41.9326065,9.3762521 42.2705489,9.3762521 C42.5273018,9.3762521 42.8749591,9.31905882 42.8749591,9.00690756 C42.8749591,8.68993277 42.4690119,8.63687395 42.0575133,8.54591597 C41.6522601,8.45495798 41.2414555,8.31989916 41.2414555,7.84512605 C41.2414555,7.34554622 41.7396949,7.13951261 42.174093,7.13951261 C42.7257648,7.13951261 43.1657144,7.31247059 43.1997168,7.91747899 L42.7882182,7.91747899 C42.7597672,7.6005042 42.4794208,7.49852101 42.2080954,7.49852101 C41.9617514,7.49852101 41.6765475,7.5667395 41.6765475,7.8154958 C41.6765475,8.10973109 42.1116396,8.15658824 42.4932993,8.24754622 C42.9047979,8.33988235 43.3107451,8.47356303 43.3107451,8.95384874 C43.3107451,9.54507563 42.7542158,9.73663866 42.2469553,9.73663866 C41.6855686,9.73663866 41.2123105,9.51131092 41.1880231,8.89596639 L41.5995217,8.89596639" id="Fill-64" sketch:type="MSShapeGroup"></path>
                <path d="M44.0157747,8.89596639 C44.031735,9.26186555 44.3502474,9.3762521 44.6888836,9.3762521 C44.9449426,9.3762521 45.2939878,9.31905882 45.2939878,9.00690756 C45.2939878,8.68993277 44.8866528,8.63687395 44.4758481,8.54591597 C44.069901,8.45495798 43.6597902,8.31989916 43.6597902,7.84512605 C43.6597902,7.34554622 44.1566418,7.13951261 44.5917339,7.13951261 C45.1427117,7.13951261 45.5826613,7.31247059 45.6166637,7.91747899 L45.2058591,7.91747899 C45.1774081,7.6005042 44.8956738,7.49852101 44.6257363,7.49852101 C44.3793923,7.49852101 44.0941884,7.5667395 44.0941884,7.8154958 C44.0941884,8.10973109 44.5292805,8.15658824 44.9109402,8.24754622 C45.3224388,8.33988235 45.7283859,8.47356303 45.7283859,8.95384874 C45.7283859,9.54507563 45.1718567,9.73663866 44.6645962,9.73663866 C44.1032094,9.73663866 43.6306453,9.51131092 43.605664,8.89596639 L44.0157747,8.89596639" id="Fill-65" sketch:type="MSShapeGroup"></path>
                <path d="M47.9184188,8.2 C47.897601,7.81136134 47.60407,7.49852101 47.1974289,7.49852101 C46.7665004,7.49852101 46.5111353,7.8210084 46.4812965,8.2 L47.9184188,8.2 L47.9184188,8.2 Z M48.314651,8.89252101 C48.2036227,9.43826891 47.8073905,9.73663866 47.2460038,9.73663866 C46.447988,9.73663866 46.0718797,9.18882353 46.0468983,8.43084034 C46.0468983,7.68732773 46.5395863,7.13951261 47.2210224,7.13951261 C48.105779,7.13951261 48.3764105,7.95951261 48.3535109,8.56038655 L46.4812965,8.56038655 C46.4674179,8.9917479 46.7137619,9.3762521 47.2605762,9.3762521 C47.5985186,9.3762521 47.8358415,9.21363025 47.9080099,8.89252101 L48.314651,8.89252101 L48.314651,8.89252101 Z" id="Fill-66" sketch:type="MSShapeGroup"></path>
                <path d="M48.7781941,7.19739496 L49.1640173,7.19739496 L49.1640173,7.59085714 L49.1744262,7.59085714 C49.3486019,7.28352941 49.6296422,7.13951261 49.9863206,7.13951261 C50.6434692,7.13951261 50.8467897,7.51436975 50.8467897,8.04564706 L50.8467897,9.67806723 L50.4359851,9.67806723 L50.4359851,7.99810084 C50.4359851,7.69628571 50.2423795,7.49852101 49.9280307,7.49852101 C49.4304852,7.49852101 49.1896926,7.83065546 49.1896926,8.27648739 L49.1896926,9.67806723 L48.7781941,9.67806723 L48.7781941,7.19739496" id="Fill-67" sketch:type="MSShapeGroup"></path>
                <path d="M51.6697869,8.89596639 C51.6836654,9.26186555 52.0021778,9.3762521 52.3401201,9.3762521 C52.596873,9.3762521 52.9452243,9.31905882 52.9452243,9.00690756 C52.9452243,8.68993277 52.5385832,8.63687395 52.1277785,8.54591597 C51.7218314,8.45495798 51.3110267,8.31989916 51.3110267,7.84512605 C51.3110267,7.34554622 51.8085722,7.13951261 52.2443582,7.13951261 C52.79603,7.13951261 53.2359796,7.31247059 53.2692881,7.91747899 L52.8577895,7.91747899 C52.8286446,7.6005042 52.5489921,7.49852101 52.2776667,7.49852101 C52.0306288,7.49852101 51.7461188,7.5667395 51.7461188,7.8154958 C51.7461188,8.10973109 52.1812109,8.15658824 52.5635646,8.24754622 C52.9729813,8.33988235 53.3803164,8.47356303 53.3803164,8.95384874 C53.3803164,9.54507563 52.824481,9.73663866 52.3165266,9.73663866 C51.7558338,9.73663866 51.2825757,9.51131092 51.2575944,8.89596639 L51.6697869,8.89596639" id="Fill-68" sketch:type="MSShapeGroup"></path>
                <path d="M55.5314893,7.99396639 C55.4690359,7.6825042 55.250449,7.49852101 54.9125067,7.49852101 C54.3178114,7.49852101 54.1339208,7.96502521 54.1339208,8.46805042 C54.1339208,8.92421849 54.3427928,9.3762521 54.8646257,9.3762521 C55.2608579,9.3762521 55.4974869,9.14610084 55.5509193,8.77193277 L55.9714389,8.77193277 C55.8791466,9.3762521 55.4974869,9.73663866 54.8680953,9.73663866 C54.1047759,9.73663866 53.6995227,9.20811765 53.6995227,8.46805042 C53.6995227,7.72522689 54.0853459,7.13951261 54.8778103,7.13951261 C55.4440546,7.13951261 55.8985766,7.40342857 55.9568664,7.99396639 L55.5314893,7.99396639" id="Fill-69" sketch:type="MSShapeGroup"></path>
                <path d="M56.4793933,6.25129412 L56.889504,6.25129412 L56.889504,7.56191597 L56.899219,7.56191597 C57.0359226,7.26423529 57.3870495,7.13951261 57.6875198,7.13951261 C58.3453624,7.13951261 58.547989,7.51436975 58.547989,8.04564706 L58.547989,9.67806723 L58.1364904,9.67806723 L58.1364904,7.99810084 C58.1364904,7.69628571 57.9435788,7.49852101 57.6292299,7.49852101 C57.1316844,7.49852101 56.889504,7.83065546 56.889504,8.27648739 L56.889504,9.67806723 L56.4793933,9.67806723 L56.4793933,6.25129412" id="Fill-70" sketch:type="MSShapeGroup"></path>
                <path d="M60.6651595,8.39638655 C60.5055564,8.51215126 60.196759,8.51697479 59.92127,8.56589916 C59.6499447,8.6127563 59.4188671,8.70853782 59.4188671,9.01104202 C59.4188671,9.27978151 59.6499447,9.3762521 59.902534,9.3762521 C60.4437969,9.3762521 60.6651595,9.03998319 60.6651595,8.81465546 L60.6651595,8.39638655 L60.6651595,8.39638655 Z M61.3320232,9.66910924 C61.2605487,9.71183193 61.1682564,9.73663866 61.0377982,9.73663866 C60.8247627,9.73663866 60.689447,9.62087395 60.689447,9.35282353 C60.4625329,9.61605042 60.1578991,9.73663866 59.8102418,9.73663866 C59.3557197,9.73663866 58.9830811,9.5347395 58.9830811,9.03998319 C58.9830811,8.47907563 59.4042946,8.35848739 59.8289778,8.27648739 C60.2841937,8.19035294 60.6707109,8.21860504 60.6707109,7.91196639 C60.6707109,7.55640336 60.3750981,7.49852101 60.1141817,7.49852101 C59.7658304,7.49852101 59.5097715,7.60463866 59.4910354,7.97053782 L59.0795369,7.97053782 C59.1038243,7.35519328 59.5826338,7.13951261 60.1384691,7.13951261 C60.5881337,7.13951261 61.0766581,7.24011765 61.0766581,7.8210084 L61.0766581,9.09717647 C61.0766581,9.28942857 61.0766581,9.3762521 61.2071163,9.3762521 C61.2411187,9.3762521 61.2792847,9.37280672 61.3320232,9.35282353 L61.3320232,9.66910924 L61.3320232,9.66910924 Z" id="Fill-71" sketch:type="MSShapeGroup"></path>
                <path d="M61.9315759,7.55640336 L61.5124441,7.55640336 L61.5124441,7.19739496 L61.9315759,7.19739496 L61.9315759,6.82667227 C61.9315759,6.4242521 62.1737563,6.21201681 62.6234209,6.21201681 C62.7011407,6.21201681 62.8121689,6.22717647 62.8891948,6.25129412 L62.8891948,6.60616807 C62.8163325,6.58205042 62.7295917,6.57309244 62.6574233,6.57309244 C62.4589602,6.57309244 62.3423805,6.63510924 62.3423805,6.85147899 L62.3423805,7.19739496 L62.8260475,7.19739496 L62.8260475,7.55640336 L62.3423805,7.55640336 L62.3423805,9.67806723 L61.9315759,9.67806723 L61.9315759,7.55640336" id="Fill-72" sketch:type="MSShapeGroup"></path>
                <path d="M63.8121174,7.19739496 L64.3110507,7.19739496 L64.3110507,7.55640336 L63.8121174,7.55640336 L63.8121174,9.09717647 C63.8121174,9.28529412 63.8655498,9.31905882 64.1216087,9.31905882 L64.3110507,9.31905882 L64.3110507,9.67806723 L63.9953141,9.67806723 C63.569937,9.67806723 63.4013128,9.59193277 63.4013128,9.13576471 L63.4013128,7.55640336 L62.9759357,7.55640336 L62.9759357,7.19739496 L63.4013128,7.19739496 L63.4013128,6.4525042 L63.8121174,6.4525042 L63.8121174,7.19739496" id="Fill-73" sketch:type="MSShapeGroup"></path>
                <path d="M66.4226699,8.2 C66.4032399,7.81136134 66.109015,7.49852101 65.70168,7.49852101 C65.2714454,7.49852101 65.0153864,7.8210084 64.9869354,8.2 L66.4226699,8.2 L66.4226699,8.2 Z M66.8189021,8.89252101 C66.7078738,9.43826891 66.3116416,9.73663866 65.7502549,9.73663866 C64.9536269,9.73663866 64.5761308,9.18882353 64.5518433,8.43084034 C64.5518433,7.68732773 65.0445313,7.13951261 65.7273553,7.13951261 C66.611418,7.13951261 66.8813555,7.95951261 66.8584559,8.56038655 L64.9869354,8.56038655 C64.972363,8.9917479 65.2194009,9.3762521 65.7655212,9.3762521 C66.1034636,9.3762521 66.3407865,9.21363025 66.4129549,8.89252101 L66.8189021,8.89252101 L66.8189021,8.89252101 Z" id="Fill-74" sketch:type="MSShapeGroup"></path>
                <path d="M67.331714,7.19739496 L67.7182312,7.19739496 L67.7182312,7.59085714 L67.7279461,7.59085714 C67.9021218,7.28352941 68.1824682,7.13951261 68.5398405,7.13951261 C69.1969891,7.13951261 69.4010036,7.51436975 69.4010036,8.04564706 L69.4010036,9.67806723 L68.9888111,9.67806723 L68.9888111,7.99810084 C68.9888111,7.69628571 68.7965934,7.49852101 68.4822445,7.49852101 C67.9840051,7.49852101 67.7432125,7.83065546 67.7432125,8.27648739 L67.7432125,9.67806723 L67.331714,9.67806723 L67.331714,7.19739496" id="Fill-75" sketch:type="MSShapeGroup"></path>
            </g>
        </g>
    </g>
</svg>